<?xml version="1.0" encoding="utf-8"?>
<svg version="1.1" xmlns="http://www.w3.org/2000/svg" viewBox="0 0 18 18" enable-background="new 0 0 18 18">
 <g transform="translate(0 -270.54)">
  <path d="M3.2,286.2h0.2c0.3-2.6,1.5-4.5,3.1-6c0.3-0.3,0.3-0.8,0-1.1c-1.5-1-2.5-3.5-3.1-6.3H3.2
		c-0.5,0-0.8-0.4-0.8-0.8v-0.8c0-0.4,0.4-0.8,0.8-0.8h11.6c0.5,0,0.8,0.4,0.8,0.8v0.8c0,0.4-0.4,0.8-0.8,0.8
		c-0.6,2.8-1.6,5.2-3.1,6.3c-0.4,0.2-0.4,0.8,0,1.1c1.6,1.5,2.8,3.4,3.1,6h0c0.5,0,0.8,0.4,0.8,0.8v0.8c0,0.4-0.4,0.8-0.8,0.8H3.2
		c-0.5,0-0.8-0.4-0.8-0.8V287C2.4,286.5,2.7,286.2,3.2,286.2L3.2,286.2z M13.6,285.8c-3.5-5.8-5.6-5.7-9-0.2
		c0.4-2.4,1.5-4.3,3.4-5.5c0.3-0.2,0.3-0.7-0.1-0.9c-1.8-1-3-3.1-3.7-6.3h9.6c-0.7,3.2-1.9,5.4-3.7,6.3c-0.3,0.2-0.4,0.7-0.1,0.9
		C12.1,281.3,13.2,283.3,13.6,285.8L13.6,285.8z" fill-rule="evenodd"/>
  <path d="M6.3,275.8l5.8,0C10.5,278.6,8,279,6.3,275.8z" fill-rule="evenodd"/>
 </g>
</svg>
